<svg xmlns="http://www.w3.org/2000/svg" width="16" height="16" viewBox="0 0 16 16">
    <path fill="#FFF" fill-rule="nonzero" d="M11.69 10.71a.324.324 0 0 1-.227-.091l-2.2-2.172-2.2 2.172a.324.324 0 0 1-.453 0 .314.314 0 0 1 0-.448L8.81 8l-2.2-2.171a.314.314 0 0 1 0-.448.324.324 0 0 1 .453 0l2.2 2.172 2.2-2.172a.324.324 0 0 1 .454 0 .314.314 0 0 1 0 .448L9.717 8l2.2 2.171a.314.314 0 0 1 0 .448.324.324 0 0 1-.227.092zM.705 8l3.337 4.94c.236.29.475.428.758.428h9.6c.53 0 .96-.425.96-.947V3.58a.955.955 0 0 0-.96-.947H4.8c-.328 0-.555.128-.758.428L.705 8zM14.4 14H4.8c-.482 0-.899-.225-1.273-.687L.054 8.175a.312.312 0 0 1 0-.35L3.51 2.71C3.832 2.232 4.254 2 4.8 2h9.6c.883 0 1.6.709 1.6 1.579v8.842c0 .87-.717 1.579-1.6 1.579z"/>
</svg>
